<svg xmlns="http://www.w3.org/2000/svg" viewBox="0 0 24 24" role="img" aria-label="Discord">
  <path fill="#ffffff" d="M18.8 6.1A15 15 0 0 0 15.1 5l-.2.4c1.3.4 2 .9 2.9 1.5a10 10 0 0 0-8.6 0c.9-.7 1.8-1.2 2.9-1.5L11.9 5A15 15 0 0 0 8.2 6.1C5.9 9.5 5.3 12.8 5.6 16c1.5 1.1 3 1.8 4.4 2.2l.9-1.5c-.5-.2-1-.4-1.5-.7l.4-.3a10.8 10.8 0 0 0 4.4 0l.4.3c-.5.3-1 .5-1.5.7l.9 1.5c1.4-.4 2.9-1.1 4.4-2.2.4-3.7-.6-7-2.6-9.9ZM10.1 14c-.8 0-1.4-.7-1.4-1.6s.6-1.6 1.4-1.6 1.4.7 1.4 1.6S10.9 14 10.1 14Zm3.8 0c-.8 0-1.4-.7-1.4-1.6s.6-1.6 1.4-1.6 1.4.7 1.4 1.6-.6 1.6-1.4 1.6Z"/>
</svg>
