<svg xmlns="http://www.w3.org/2000/svg" viewBox="0 0 24 24" role="img" aria-label="GitHub">
  <path fill="#ffffff" d="M12 2.9a9.3 9.3 0 0 0-2.9 18.2c.5.1.7-.2.7-.5v-1.7c-2.8.6-3.4-1.2-3.4-1.2-.5-1.1-1.1-1.4-1.1-1.4-.9-.6.1-.6.1-.6 1 0 1.6 1.1 1.6 1.1.9 1.5 2.4 1.1 2.9.8.1-.7.4-1.1.7-1.4-2.2-.3-4.6-1.1-4.6-4.8 0-1.1.4-1.9 1-2.6-.1-.3-.4-1.3.1-2.6 0 0 .8-.3 2.7 1a9.2 9.2 0 0 1 4.9 0c1.9-1.3 2.7-1 2.7-1 .5 1.3.2 2.3.1 2.6.7.7 1 1.5 1 2.6 0 3.7-2.3 4.5-4.6 4.8.4.3.7.9.7 1.8v2.6c0 .3.2.6.7.5A9.3 9.3 0 0 0 12 2.9Z"/>
</svg>
